<svg width="173" height="33" viewBox="0 0 173 33" fill="none" xmlns="http://www.w3.org/2000/svg">
<path d="M48.6996 6.384H52.2096V21.672H60.0876V25H48.6996V6.384ZM68.2043 11.844C69.1923 11.844 70.0936 12.0173 70.9083 12.364C71.7403 12.6933 72.451 13.1613 73.0403 13.768C73.647 14.3573 74.115 15.068 74.4443 15.9C74.791 16.732 74.9643 17.642 74.9643 18.63C74.9643 19.618 74.791 20.528 74.4443 21.36C74.115 22.192 73.647 22.9113 73.0403 23.518C72.451 24.1073 71.7403 24.5753 70.9083 24.922C70.0936 25.2513 69.1923 25.416 68.2043 25.416C67.2163 25.416 66.3063 25.2513 65.4743 24.922C64.6596 24.5753 63.949 24.1073 63.3423 23.518C62.753 22.9113 62.285 22.192 61.9383 21.36C61.609 20.528 61.4443 19.618 61.4443 18.63C61.4443 17.642 61.609 16.732 61.9383 15.9C62.285 15.068 62.753 14.3573 63.3423 13.768C63.949 13.1613 64.6596 12.6933 65.4743 12.364C66.3063 12.0173 67.2163 11.844 68.2043 11.844ZM68.2043 22.27C68.6376 22.27 69.0536 22.192 69.4523 22.036C69.8683 21.8627 70.2323 21.62 70.5443 21.308C70.8563 20.996 71.099 20.6147 71.2723 20.164C71.463 19.7133 71.5583 19.202 71.5583 18.63C71.5583 18.058 71.463 17.5467 71.2723 17.096C71.099 16.6453 70.8563 16.264 70.5443 15.952C70.2323 15.64 69.8683 15.406 69.4523 15.25C69.0536 15.0767 68.6376 14.99 68.2043 14.99C67.7536 14.99 67.329 15.0767 66.9303 15.25C66.5316 15.406 66.1763 15.64 65.8643 15.952C65.5523 16.264 65.301 16.6453 65.1103 17.096C64.937 17.5467 64.8503 18.058 64.8503 18.63C64.8503 19.202 64.937 19.7133 65.1103 20.164C65.301 20.6147 65.5523 20.996 65.8643 21.308C66.1763 21.62 66.5316 21.8627 66.9303 22.036C67.329 22.192 67.7536 22.27 68.2043 22.27ZM85.0048 23.648H84.7968C84.3981 24.1333 83.9128 24.5493 83.3408 24.896C82.7861 25.2427 82.0668 25.416 81.1828 25.416C80.5241 25.416 79.9001 25.3033 79.3108 25.078C78.7388 24.87 78.2361 24.5753 77.8028 24.194C77.3694 23.8127 77.0314 23.3533 76.7888 22.816C76.5461 22.2787 76.4248 21.6893 76.4248 21.048C76.4248 20.3893 76.5548 19.8 76.8148 19.28C77.0748 18.7427 77.4388 18.2833 77.9068 17.902C78.3748 17.5207 78.9208 17.2347 79.5448 17.044C80.1861 16.836 80.8794 16.732 81.6248 16.732C82.4568 16.732 83.1414 16.8013 83.6788 16.94C84.2161 17.0613 84.6581 17.1913 85.0048 17.33V16.94C85.0048 16.264 84.7361 15.7093 84.1988 15.276C83.6614 14.8253 82.9941 14.6 82.1968 14.6C81.0181 14.6 80.0214 15.094 79.2068 16.082L76.7368 14.392C78.0888 12.6933 79.9348 11.844 82.2748 11.844C84.2508 11.844 85.7588 12.312 86.7988 13.248C87.8388 14.1667 88.3588 15.536 88.3588 17.356V25H85.0048V23.648ZM85.0048 19.826C84.6061 19.6353 84.1901 19.488 83.7568 19.384C83.3408 19.2627 82.8814 19.202 82.3788 19.202C81.5641 19.202 80.9314 19.384 80.4808 19.748C80.0474 20.0947 79.8308 20.528 79.8308 21.048C79.8308 21.568 80.0388 21.984 80.4548 22.296C80.8881 22.608 81.3821 22.764 81.9368 22.764C82.3874 22.764 82.8034 22.686 83.1848 22.53C83.5661 22.3567 83.8868 22.14 84.1468 21.88C84.4241 21.6027 84.6321 21.2907 84.7708 20.944C84.9268 20.58 85.0048 20.2073 85.0048 19.826ZM94.2648 13.924H94.4728C94.8715 13.2827 95.4088 12.78 96.0848 12.416C96.7608 12.0347 97.5322 11.844 98.3988 11.844C99.1962 11.844 99.8982 11.974 100.505 12.234C101.112 12.494 101.606 12.8667 101.987 13.352C102.386 13.82 102.68 14.392 102.871 15.068C103.079 15.7267 103.183 16.4633 103.183 17.278V25H99.7768V17.694C99.7768 16.7753 99.5688 16.0993 99.1528 15.666C98.7542 15.2153 98.1648 14.99 97.3848 14.99C96.9168 14.99 96.5008 15.094 96.1368 15.302C95.7902 15.4927 95.4868 15.7613 95.2268 16.108C94.9842 16.4373 94.7935 16.836 94.6548 17.304C94.5335 17.7547 94.4728 18.24 94.4728 18.76V25H91.0668V12.26H94.2648V13.924ZM110.914 25.416C110.082 25.416 109.336 25.312 108.678 25.104C108.036 24.896 107.473 24.6273 106.988 24.298C106.52 23.9513 106.121 23.5613 105.792 23.128C105.462 22.6773 105.211 22.2267 105.038 21.776L108.08 20.476C108.374 21.1347 108.764 21.6287 109.25 21.958C109.752 22.27 110.307 22.426 110.914 22.426C111.538 22.426 112.032 22.3133 112.396 22.088C112.76 21.8627 112.942 21.594 112.942 21.282C112.942 20.9353 112.786 20.658 112.474 20.45C112.179 20.2247 111.659 20.0253 110.914 19.852L109.12 19.462C108.721 19.3753 108.305 19.2367 107.872 19.046C107.456 18.8553 107.074 18.6127 106.728 18.318C106.381 18.0233 106.095 17.668 105.87 17.252C105.644 16.836 105.532 16.3507 105.532 15.796C105.532 15.172 105.662 14.6173 105.922 14.132C106.199 13.6467 106.572 13.2393 107.04 12.91C107.508 12.5633 108.054 12.3033 108.678 12.13C109.319 11.9393 110.004 11.844 110.732 11.844C111.945 11.844 113.028 12.0867 113.982 12.572C114.935 13.04 115.637 13.794 116.088 14.834L113.15 16.03C112.907 15.5273 112.552 15.1633 112.084 14.938C111.616 14.7127 111.148 14.6 110.68 14.6C110.194 14.6 109.77 14.704 109.406 14.912C109.042 15.1027 108.86 15.354 108.86 15.666C108.86 15.9607 109.007 16.1947 109.302 16.368C109.614 16.5413 110.03 16.6973 110.55 16.836L112.5 17.304C113.8 17.616 114.762 18.1187 115.386 18.812C116.027 19.488 116.348 20.294 116.348 21.23C116.348 21.7847 116.218 22.3133 115.958 22.816C115.698 23.3187 115.325 23.7693 114.84 24.168C114.372 24.5493 113.8 24.8527 113.124 25.078C112.465 25.3033 111.728 25.416 110.914 25.416ZM121.509 13.924H121.717C122.116 13.2827 122.653 12.78 123.329 12.416C124.005 12.0347 124.776 11.844 125.643 11.844C126.44 11.844 127.142 11.974 127.749 12.234C128.356 12.494 128.85 12.8667 129.231 13.352C129.63 13.82 129.924 14.392 130.115 15.068C130.323 15.7267 130.427 16.4633 130.427 17.278V25H127.021V17.694C127.021 16.7753 126.813 16.0993 126.397 15.666C125.998 15.2153 125.409 14.99 124.629 14.99C124.161 14.99 123.745 15.094 123.381 15.302C123.034 15.4927 122.731 15.7613 122.471 16.108C122.228 16.4373 122.038 16.836 121.899 17.304C121.778 17.7547 121.717 18.24 121.717 18.76V25H118.311V12.26H121.509V13.924ZM145.305 21.932C144.715 22.972 143.918 23.8127 142.913 24.454C141.925 25.0953 140.711 25.416 139.273 25.416C138.302 25.416 137.401 25.2513 136.569 24.922C135.754 24.5753 135.043 24.0987 134.437 23.492C133.83 22.8853 133.353 22.1747 133.007 21.36C132.677 20.528 132.513 19.618 132.513 18.63C132.513 17.7113 132.677 16.8447 133.007 16.03C133.336 15.198 133.795 14.4787 134.385 13.872C134.974 13.248 135.667 12.754 136.465 12.39C137.279 12.026 138.172 11.844 139.143 11.844C140.165 11.844 141.075 12.0173 141.873 12.364C142.67 12.6933 143.337 13.1613 143.875 13.768C144.412 14.3573 144.819 15.0593 145.097 15.874C145.374 16.6887 145.513 17.5727 145.513 18.526C145.513 18.6473 145.513 18.7513 145.513 18.838C145.495 18.942 145.487 19.0373 145.487 19.124C145.469 19.2107 145.461 19.306 145.461 19.41H135.867C135.936 19.93 136.075 20.3807 136.283 20.762C136.508 21.126 136.777 21.438 137.089 21.698C137.418 21.9407 137.773 22.1227 138.155 22.244C138.536 22.348 138.926 22.4 139.325 22.4C140.105 22.4 140.746 22.2267 141.249 21.88C141.769 21.516 142.176 21.0653 142.471 20.528L145.305 21.932ZM142.211 16.992C142.193 16.7667 142.115 16.5153 141.977 16.238C141.855 15.9607 141.665 15.7007 141.405 15.458C141.162 15.2153 140.85 15.016 140.469 14.86C140.105 14.704 139.663 14.626 139.143 14.626C138.415 14.626 137.773 14.834 137.219 15.25C136.664 15.666 136.274 16.2467 136.049 16.992H142.211ZM152.859 25.416C152.027 25.416 151.282 25.312 150.623 25.104C149.982 24.896 149.418 24.6273 148.933 24.298C148.465 23.9513 148.066 23.5613 147.737 23.128C147.408 22.6773 147.156 22.2267 146.983 21.776L150.025 20.476C150.32 21.1347 150.71 21.6287 151.195 21.958C151.698 22.27 152.252 22.426 152.859 22.426C153.483 22.426 153.977 22.3133 154.341 22.088C154.705 21.8627 154.887 21.594 154.887 21.282C154.887 20.9353 154.731 20.658 154.419 20.45C154.124 20.2247 153.604 20.0253 152.859 19.852L151.065 19.462C150.666 19.3753 150.25 19.2367 149.817 19.046C149.401 18.8553 149.02 18.6127 148.673 18.318C148.326 18.0233 148.04 17.668 147.815 17.252C147.59 16.836 147.477 16.3507 147.477 15.796C147.477 15.172 147.607 14.6173 147.867 14.132C148.144 13.6467 148.517 13.2393 148.985 12.91C149.453 12.5633 149.999 12.3033 150.623 12.13C151.264 11.9393 151.949 11.844 152.677 11.844C153.89 11.844 154.974 12.0867 155.927 12.572C156.88 13.04 157.582 13.794 158.033 14.834L155.095 16.03C154.852 15.5273 154.497 15.1633 154.029 14.938C153.561 14.7127 153.093 14.6 152.625 14.6C152.14 14.6 151.715 14.704 151.351 14.912C150.987 15.1027 150.805 15.354 150.805 15.666C150.805 15.9607 150.952 16.1947 151.247 16.368C151.559 16.5413 151.975 16.6973 152.495 16.836L154.445 17.304C155.745 17.616 156.707 18.1187 157.331 18.812C157.972 19.488 158.293 20.294 158.293 21.23C158.293 21.7847 158.163 22.3133 157.903 22.816C157.643 23.3187 157.27 23.7693 156.785 24.168C156.317 24.5493 155.745 24.8527 155.069 25.078C154.41 25.3033 153.674 25.416 152.859 25.416ZM161.66 15.172H159.424V12.26H161.66V8.36H165.066V12.26H168.186V15.172H165.066V20.112C165.066 20.4067 165.092 20.684 165.144 20.944C165.214 21.1867 165.335 21.3947 165.508 21.568C165.751 21.8453 166.098 21.984 166.548 21.984C166.843 21.984 167.077 21.958 167.25 21.906C167.424 21.8367 167.588 21.75 167.744 21.646L168.706 24.636C168.308 24.8267 167.874 24.9653 167.406 25.052C166.956 25.156 166.453 25.208 165.898 25.208C165.257 25.208 164.676 25.1127 164.156 24.922C163.654 24.714 163.229 24.4367 162.882 24.09C162.068 23.31 161.66 22.2007 161.66 20.762V15.172Z" fill="#233558"/>
<rect width="30.8276" height="30.8276" fill="white"/>
<path fill-rule="evenodd" clip-rule="evenodd" d="M7.70691 15.4138C11.9633 15.4138 15.4138 18.8643 15.4138 23.1207C15.4138 27.3771 11.9633 30.8276 7.70691 30.8276C3.4505 30.8276 0 27.3771 0 23.1207C0 18.8643 3.4505 15.4138 7.70691 15.4138Z" fill="#FF6242"/>
<rect x="15.4138" width="15.4138" height="15.4138" fill="#00C9F2"/>
</svg>
